<svg id="Layer_3" enable-background="new 0 0 64 64" height="512" viewBox="0 0 64 64" width="512" xmlns="http://www.w3.org/2000/svg"><g><circle cx="32" cy="32" fill="#4e4a40" r="30"/><circle cx="32" cy="32" fill="#f8cf6a" r="26"/><path d="m6 32c0 5.894 1.964 11.328 5.269 15.688 2.614.848 5.373 1.312 8.231 1.312 16.292 0 29.5-14.775 29.5-33 0-1.3-.075-2.58-.205-3.841-4.531-3.839-10.391-6.159-16.795-6.159-14.359 0-26 11.641-26 26z" fill="#fbe2a6"/><circle cx="24" cy="45" fill="#4e4a40" r="6"/><circle cx="24" cy="45" fill="#fff" r="2"/><circle cx="40" cy="19" fill="#4e4a40" r="6"/><circle cx="40" cy="19" fill="#fff" r="2"/><path d="m52 38c0-1.587-1.236-2.872-2.796-2.979.49-.534.796-1.24.796-2.021 0-1.657-1.343-3-3-3-.537 0-1.034.153-1.47.4-.532-.839-1.463-1.4-2.53-1.4s-1.998.561-2.53 1.4c-.436-.247-.933-.4-1.47-.4-1.657 0-3 1.343-3 3 0 .781.306 1.487.796 2.021-1.56.107-2.796 1.392-2.796 2.979s1.236 2.872 2.796 2.979c-.49.534-.796 1.24-.796 2.021 0 1.657 1.343 3 3 3 .537 0 1.034-.153 1.47-.4.532.839 1.463 1.4 2.53 1.4s1.998-.561 2.53-1.4c.436.247.933.4 1.47.4 1.657 0 3-1.343 3-3 0-.781-.306-1.487-.796-2.021 1.56-.107 2.796-1.392 2.796-2.979z" fill="#f29f8c"/><path d="m30 26c0-1.587-1.236-2.872-2.796-2.979.49-.534.796-1.24.796-2.021 0-1.657-1.343-3-3-3-.537 0-1.034.153-1.47.4-.532-.839-1.463-1.4-2.53-1.4s-1.998.561-2.53 1.4c-.436-.247-.933-.4-1.47-.4-1.657 0-3 1.343-3 3 0 .781.306 1.487.796 2.021-1.56.107-2.796 1.392-2.796 2.979s1.236 2.872 2.796 2.979c-.49.534-.796 1.24-.796 2.021 0 1.657 1.343 3 3 3 .537 0 1.034-.153 1.47-.4.532.839 1.463 1.4 2.53 1.4s1.998-.561 2.53-1.4c.436.247.933.4 1.47.4 1.657 0 3-1.343 3-3 0-.781-.306-1.487-.796-2.021 1.56-.107 2.796-1.392 2.796-2.979z" fill="#f29f8c"/><path d="m44 62c-1.105 0-2-.895-2-2v-56c0-1.105.895-2 2-2 1.105 0 2 .895 2 2v56c0 1.105-.895 2-2 2z" fill="#bf8859"/><path d="m52 62c-1.105 0-2-.895-2-2v-56c0-1.105.895-2 2-2 1.105 0 2 .895 2 2v56c0 1.105-.895 2-2 2z" fill="#bf8859"/><g><path d="m21 31c-2.206 0-4-1.794-4-4v-1.16c0-2.669 2.171-4.84 4.84-4.84v2c-1.566 0-2.84 1.274-2.84 2.84v1.16c0 1.103.897 2 2 2s2-.897 2-2v-.5c0-.275-.224-.5-.5-.5s-.5.225-.5.5v1.5h-2v-1.5c0-1.379 1.122-2.5 2.5-2.5s2.5 1.121 2.5 2.5v.5c0 2.206-1.794 4-4 4z" fill="#fff"/></g><g><path d="m33.707 56.707-1.414-1.414 1.293-1.293c.267-.268.414-.622.414-1s-.147-.732-.415-1l-.585-.586c-.645-.646-1-1.503-1-2.414s.355-1.769 1-2.414l1.293-1.293 1.414 1.414-1.293 1.293c-.267.268-.414.622-.414 1s.147.732.415 1l.585.586c.645.646 1 1.503 1 2.414s-.355 1.769-1 2.414z" fill="#fff"/></g><g><path d="m12.707 45.707-1.414-1.414 1.293-1.293c.267-.268.414-.622.414-1s-.147-.732-.415-1l-.585-.586c-.645-.646-1-1.503-1-2.414s.355-1.769 1-2.414l1.293-1.293 1.414 1.414-1.293 1.293c-.267.268-.414.622-.414 1s.147.732.415 1l.585.586c.645.646 1 1.503 1 2.414s-.355 1.769-1 2.414z" fill="#fff"/></g><g><path d="m29.707 18.707-1.414-1.414 1.293-1.293c.267-.268.414-.622.414-1s-.147-.732-.415-1l-.585-.586c-.645-.646-1-1.503-1-2.414s.355-1.769 1-2.414l1.293-1.293 1.414 1.414-1.293 1.293c-.267.268-.414.622-.414 1s.147.732.415 1l.585.586c.645.646 1 1.503 1 2.414s-.355 1.769-1 2.414z" fill="#fff"/></g><g><path d="m42 49h4v2h-4z" fill="#8f6643"/></g><g><path d="m50 49h4v2h-4z" fill="#8f6643"/></g></g></svg>